<svg id="SvgjsSvg1001" width="288" height="288" xmlns="http://www.w3.org/2000/svg" version="1.1" xmlns:xlink="http://www.w3.org/1999/xlink" xmlns:svgjs="http://svgjs.com/svgjs"><defs id="SvgjsDefs1002"></defs><g id="SvgjsG1008" transform="matrix(0.9167,0,0,0.9167,11.995200000000011,11.995200000000011)"><svg xmlns="http://www.w3.org/2000/svg" viewBox="0 0 24 24" width="288" height="288"><path fill="#193646" d="M23.5 7h-1.525a5.473 5.473 0 0 0-1.251-3.017l1.08-1.08a.5.5 0 1 0-.707-.706l-1.08 1.08A5.474 5.474 0 0 0 17 2.024V.5a.5.5 0 1 0-1 0v1.54a5.427 5.427 0 0 0-3 1.253l-1.097-1.096a.5.5 0 1 0-.707.707l1.1 1.099c-.321.389-.588.824-.797 1.3A6.902 6.902 0 0 0 9.5 5a6.984 6.984 0 0 0-6.946 6.28A3.998 3.998 0 0 0 0 15c0 2.206 1.794 4 4 4h6v1.134l-1.415-.817a.501.501 0 0 0-.5.866L9.5 21l-1.415.817a.5.5 0 1 0 .5.866L10 21.866V23.5a.5.5 0 1 0 1 0v-1.634l1.415.817a.5.5 0 0 0 .5-.866L11.5 21l1.415-.817a.5.5 0 1 0-.5-.866L11 20.134V19h6c2.757 0 5-2.243 5-5 0-1.211-.45-2.308-1.17-3.174A5.446 5.446 0 0 0 21.954 8H23.5a.5.5 0 1 0 0-1z" class="color303C42 svgShape"></path><path fill="#193646" d="M6.231 21a.499.499 0 00-.682-.183L5 21.134V20.5a.5.5 0 10-1 0v.634l-.549-.317a.5.5 0 10-.5.866L3.5 22l-.549.317a.5.5 0 10.5.866L4 22.866v.634a.5.5 0 101 0v-.634l.549.317a.5.5 0 00.5-.866L5.5 22l.549-.317A.5.5 0 006.23 21zM19.231 21a.5.5 0 00-.682-.183l-.549.317V20.5a.5.5 0 10-1 0v.634l-.549-.317a.501.501 0 00-.5.866L16.5 22l-.549.317a.5.5 0 10.5.866l.549-.317v.634a.5.5 0 101 0v-.634l.549.317a.5.5 0 00.5-.866L18.5 22l.549-.317A.5.5 0 0019.23 21z" class="color303C42 svgShape"></path><path fill="#ffca28" d="M20.115 10.12C19.258 9.43 18.183 9 17 9c-.388 0-.767.057-1.139.144a7.019 7.019 0 0 0-3.43-3.482C13.151 4.057 14.726 3 16.5 3 18.981 3 21 5.019 21 7.5c0 .942-.322 1.85-.885 2.62z" class="colorFFCA28 svgShape"></path><path fill="#abd8fd" d="M21 14c0 2.206-1.794 4-4 4H4c-1.654 0-3-1.346-3-3s1.346-3 3-3a.5.5 0 1 0 0-1c-.142 0-.276.027-.413.042A5.99 5.99 0 0 1 9.5 6c2.323 0 4.428 1.378 5.409 3.461a4.999 4.999 0 0 0-.699.389.5.5 0 0 0 .559.83A3.98 3.98 0 0 1 17 10c2.206 0 4 1.794 4 4z" class="color64B5F6 svgShape"></path><path d="M19.268 10.711c.14.407.232.836.232 1.289 0 2.206-1.794 4-4 4h-13a2.962 2.962 0 0 1-1.434-.382A3.004 3.004 0 0 0 4 18h13c2.206 0 4-1.794 4-4a3.995 3.995 0 0 0-1.732-3.289z" opacity=".1" fill="#ffffff" class="color000 svgShape"></path><linearGradient id="a" x1="2.736" x2="21.936" y1="8.251" y2="17.204" gradientUnits="userSpaceOnUse"><stop offset="0" stop-color="#FFF" stop-opacity=".2"></stop><stop offset="1" stop-color="#FFF" stop-opacity="0"></stop></linearGradient><path fill="url(#a)" d="M23.5 7h-1.525a5.473 5.473 0 0 0-1.251-3.017l1.08-1.08a.5.5 0 1 0-.707-.706l-1.08 1.08A5.474 5.474 0 0 0 17 2.024V.5a.5.5 0 1 0-1 0v1.54a5.427 5.427 0 0 0-3 1.253l-1.097-1.096a.5.5 0 1 0-.707.707l1.1 1.099c-.321.389-.588.824-.797 1.3A6.902 6.902 0 0 0 9.5 5a6.984 6.984 0 0 0-6.946 6.28A3.998 3.998 0 0 0 0 15c0 2.206 1.794 4 4 4h6v1.134l-1.415-.817a.501.501 0 0 0-.5.866L9.5 21l-1.415.817a.5.5 0 1 0 .5.866L10 21.866V23.5a.5.5 0 1 0 1 0v-1.634l1.415.817a.5.5 0 0 0 .5-.866L11.5 21l1.415-.817a.5.5 0 1 0-.5-.866L11 20.134V19h6c2.757 0 5-2.243 5-5 0-1.211-.45-2.308-1.17-3.174A5.446 5.446 0 0 0 21.954 8H23.5a.5.5 0 1 0 0-1zM6.231 21a.499.499 0 0 0-.682-.183L5 21.134V20.5a.5.5 0 1 0-1 0v.634l-.549-.317a.5.5 0 1 0-.5.866L3.5 22l-.549.317a.5.5 0 1 0 .5.866L4 22.866v.634a.5.5 0 1 0 1 0v-.634l.549.317a.5.5 0 0 0 .5-.866L5.5 22l.549-.317A.5.5 0 0 0 6.23 21zm13 0a.5.5 0 0 0-.682-.183l-.549.317V20.5a.5.5 0 1 0-1 0v.634l-.549-.317a.501.501 0 0 0-.5.866L16.5 22l-.549.317a.5.5 0 1 0 .5.866l.549-.317v.634a.5.5 0 1 0 1 0v-.634l.549.317a.5.5 0 0 0 .5-.866L18.5 22l.549-.317A.5.5 0 0 0 19.23 21z"></path></svg></g></svg>